# xmcd
#
# Track frame offsets:
#	150
#	11705
#	25890
#	42615
#	56760
#	71392
#	82255
#	96155
#	111790
#	125490
#	137905
#	153860
#
# Disc length: 2224 seconds
# Revision: 0
# Processed by: cddbd v1.5.2PL0 Copyright (c) Steve Scherf et al.
# Submitted via: dBpowerAMP V12.0
#
DISCID=a608ae0c
DTITLE=Special Consensus - Signs
DYEAR=2009
DGENRE=Bluegrass
TTITLE0=Signs
TTITLE1=Gone to Carolina
TTITLE2=Too Late Now
TTITLE3=Lonesome Lesson Learned
TTITLE4=Footprints
TTITLE5=Snowball Breakdown
TTITLE6=I'll Go to My Grave Lovin' You
TTITLE7=Talkin' Bout It Just Don't Get It Done
TTITLE8=Mountain Girl
TTITLE9=Leaving This Town Again
TTITLE10=My Heart breaks Again
TTITLE11=What a Beautiful Day (for the Lord to Come Again)
EXTD=
EXTT0=
EXTT1=
EXTT2=
EXTT3=
EXTT4=
EXTT5=
EXTT6=
EXTT7=
EXTT8=
EXTT9=
EXTT10=
EXTT11=
PLAYORDER=
